<svg xmlns="http://www.w3.org/2000/svg" width="33" height="33" viewBox="0 0 33 33">
  <defs>
    <style>.a {
      fill: #fff;
    }

    .b {
      fill: #ea2340;
    }</style>
  </defs>
  <circle class="a" cx="16.5" cy="16.5" r="16.5" transform="translate(0)"/>
  <g transform="translate(0 1.316)">
    <g transform="translate(0 0)">
      <g transform="translate(2.5 0.776)">
        <path class="b"
              d="M478.3,455.194a14.343,14.343,0,0,0-10.991,5.113c1.232-.06,2.874-.1,5.066-.1a63.48,63.48,0,0,1,7.611.306,2.037,2.037,0,0,1,1.52,1.045l1.828,3.349h.518a.575.575,0,0,1,.573-.541h.015a1.849,1.849,0,0,1,1.724,1.182h0a.288.288,0,0,1-.269.392h-1.43a5.1,5.1,0,0,1,2.5,4.386v3.623a2.442,2.442,0,0,1-2.442,2.441h-2.174a3.348,3.348,0,0,1-1.773-.514,1.394,1.394,0,0,1-1.186.666H465.723A14.376,14.376,0,1,0,478.3,455.194Zm8.252,22.509a1.231,1.231,0,0,1-1.231,1.231H483.4a1.231,1.231,0,0,1-1.231-1.231v-.718h4.381Z"
              transform="translate(-464.6 -455.194)"/>
        <path class="b"
              d="M481.19,471.354l-1.577-2.892a1.375,1.375,0,0,0-1.021-.7,62.427,62.427,0,0,0-7.521-.3c-2.569,0-4.37.057-5.628.133a14.327,14.327,0,0,0-2.143,4.168h17.65A.274.274,0,0,0,481.19,471.354Z"
              transform="translate(-463.3 -461.777)"/>
        <path class="b"
              d="M499.847,494.838a.439.439,0,0,0-.422.573,1.769,1.769,0,0,0,1.673,1.2H502.9a.633.633,0,0,0,.633-.633v-.5a.633.633,0,0,0-.633-.633Z"
              transform="translate(-482.676 -476.471)"/>
        <path class="b"
              d="M469.3,494.363a.3.3,0,0,0-.266.436l.075.147a.957.957,0,0,0,.853.522H478.3a.958.958,0,0,0,.853-.522l.075-.147a.3.3,0,0,0-.266-.436Z"
              transform="translate(-466.357 -476.216)"/>
        <path class="b"
              d="M503.032,482.125a1.373,1.373,0,0,0-1.373,1.374v2.06a.327.327,0,0,0,.41.316l2.074-.547a.352.352,0,0,0,.263-.341V483.5A1.373,1.373,0,0,0,503.032,482.125Z"
              transform="translate(-483.887 -469.648)"/>
      </g>
    </g>
  </g>
</svg>
